{
  "accessors": [
    {
      "bufferView": 2,
      "componentType": 5126,
      "count": 15357,
      "max": [
        0.7972703576087952,
        0.5312206745147705,
        0.7991630434989929
      ],
      "min": [
        -0.8002106547355652,
        -0.21385090053081512,
        -0.7974423766136169
      ],
      "type": "VEC3"
    },
    {
      "bufferView": 2,
      "byteOffset": 184284,
      "componentType": 5126,
      "count": 15357,
      "max": [
        0.9996246695518494,
        0.9999933242797852,
        0.9999876618385315
      ],
      "min": [
        -0.9996270537376404,
        -0.9999933838844299,
        -0.9999979138374329
      ],
      "type": "VEC3"
    },
    {
      "bufferView": 1,
      "componentType": 5126,
      "count": 15357,
      "max": [
        0.799953818321228,
        0.9762596487998962
      ],
      "min": [
        0.22216546535491943,
        0.025290578603744507
      ],
      "type": "VEC2"
    },
    {
      "bufferView": 0,
      "componentType": 5125,
      "count": 22932,
      "type": "SCALAR"
    }
  ],
  "asset": {
    "extras": {
      "author": "linus1178 (https://sketchfab.com/linus1178)",
      "license": "CC-BY-4.0 (http://creativecommons.org/licenses/by/4.0/)",
      "source": "https://sketchfab.com/3d-models/campsite-1c91c636465546c5a374d3b7860527a2",
      "title": "campsite"
    },
    "generator": "Sketchfab-12.68.0",
    "version": "2.0"
  },
  "bufferViews": [
    {
      "buffer": 0,
      "byteLength": 91728,
      "name": "floatBufferViews",
      "target": 34963
    },
    {
      "buffer": 0,
      "byteLength": 122856,
      "byteOffset": 91728,
      "byteStride": 8,
      "name": "floatBufferViews",
      "target": 34962
    },
    {
      "buffer": 0,
      "byteLength": 368568,
      "byteOffset": 214584,
      "byteStride": 12,
      "name": "floatBufferViews",
      "target": 34962
    }
  ],
  "buffers": [
    {
      "byteLength": 583152,
      "uri": "scene.bin"
    }
  ],
  "images": [
    {
      "uri": "textures/Material_baseColor.png"
    }
  ],
  "materials": [
    {
      "doubleSided": true,
      "name": "Material",
      "pbrMetallicRoughness": {
        "baseColorTexture": {
          "index": 0
        },
        "metallicFactor": 0.0,
        "roughnessFactor": 0.4
      }
    }
  ],
  "meshes": [
    {
      "name": "Object_0",
      "primitives": [
        {
          "attributes": {
            "NORMAL": 1,
            "POSITION": 0,
            "TEXCOORD_0": 2
          },
          "indices": 3,
          "material": 0,
          "mode": 4
        }
      ]
    }
  ],
  "nodes": [
    {
      "children": [
        1
      ],
      "matrix": [
        1.0,
        0.0,
        0.0,
        0.0,
        0.0,
        2.220446049250313e-16,
        -1.0,
        0.0,
        0.0,
        1.0,
        2.220446049250313e-16,
        0.0,
        0.0,
        0.0,
        0.0,
        1.0
      ],
      "name": "Sketchfab_model"
    },
    {
      "children": [
        2
      ],
      "name": "root"
    },
    {
      "children": [
        3
      ],
      "matrix": [
        1.0,
        0.0,
        0.0,
        0.0,
        0.0,
        2.220446049250313e-16,
        1.0,
        0.0,
        0.0,
        -1.0,
        2.220446049250313e-16,
        0.0,
        0.0,
        0.0,
        0.0,
        1.0
      ],
      "name": "GLTF_SceneRootNode"
    },
    {
      "children": [
        4
      ],
      "matrix": [
        8.349237442016602,
        0.0,
        0.0,
        0.0,
        0.0,
        8.349237442016602,
        0.0,
        0.0,
        0.0,
        0.0,
        8.349237442016602,
        0.0,
        0.0,
        0.0,
        0.0,
        1.0
      ],
      "name": "camping_0"
    },
    {
      "mesh": 0,
      "name": "Object_4"
    }
  ],
  "samplers": [
    {
      "magFilter": 9729,
      "minFilter": 9987,
      "wrapS": 10497,
      "wrapT": 10497
    }
  ],
  "scene": 0,
  "scenes": [
    {
      "name": "Sketchfab_Scene",
      "nodes": [
        0
      ]
    }
  ],
  "textures": [
    {
      "sampler": 0,
      "source": 0
    }
  ]
}
